<?xml version="1.0" standalone="no"?>
<!DOCTYPE svg PUBLIC "-//W3C//DTD SVG 20010904//EN"
 "http://www.w3.org/TR/2001/REC-SVG-20010904/DTD/svg10.dtd">
<svg version="1.0" xmlns="http://www.w3.org/2000/svg"
 width="512.000000pt" height="512.000000pt" viewBox="0 0 512.000000 512.000000"
 preserveAspectRatio="xMidYMid meet">
<metadata>
Created by potrace 1.14, written by Peter Selinger 2001-2017
</metadata>
<g transform="translate(0.000000,512.000000) scale(0.100000,-0.100000)"
fill="#000000" stroke="none">
<path d="M2064 4530 c-30 -12 -64 -58 -64 -88 0 -14 50 -281 110 -594 61 -313
110 -574 110 -579 0 -5 -294 -9 -735 -9 l-735 0 0 251 c0 260 -3 278 -44 311
-19 16 -52 18 -329 18 -193 0 -316 -4 -328 -10 -46 -25 -49 -49 -49 -389 l0
-321 28 -29 c18 -21 194 -112 552 -287 289 -141 658 -322 820 -402 763 -374
713 -352 796 -352 61 0 74 -3 74 -16 0 -8 -61 -311 -135 -673 -74 -362 -135
-670 -135 -684 0 -15 13 -41 29 -59 l29 -33 255 -3 c269 -3 342 5 437 46 70
30 164 107 216 175 89 118 120 199 274 737 l146 505 524 5 525 5 60 29 c77 38
159 120 192 193 22 47 28 78 33 163 l5 105 98 3 97 3 0 -286 0 -287 29 -29
c31 -31 83 -39 122 -19 48 26 49 36 49 554 l0 484 -26 31 c-32 38 -80 49 -122
27 -17 -9 -34 -22 -39 -28 -4 -7 -10 -65 -13 -128 l-5 -115 -95 0 -95 0 -5
106 c-5 93 -10 114 -38 171 -59 120 -174 201 -310 219 -37 4 -290 8 -563 9
l-495 0 -88 333 c-113 421 -137 500 -194 617 -37 76 -61 110 -122 171 -136
136 -217 158 -585 158 -132 0 -250 -4 -261 -9z m576 -210 c100 -28 175 -111
239 -263 23 -56 221 -764 221 -791 0 -3 -150 -6 -334 -6 l-335 0 -10 53 c-45
227 -191 991 -191 1002 0 13 30 15 188 15 103 0 203 -5 222 -10z m-2092 -872
l2 -188 -175 0 -175 0 0 190 0 190 173 -2 172 -3 3 -187z m1571 -447 c15 -60
69 -152 119 -205 171 -180 456 -211 666 -71 93 61 174 173 207 283 l12 42 339
0 338 0 0 -400 0 -400 -285 0 c-157 0 -285 -2 -285 -4 0 -17 -326 -1131 -344
-1176 -32 -78 -96 -171 -146 -210 -77 -61 -119 -70 -325 -70 -109 0 -185 4
-185 9 0 6 65 328 145 717 80 389 145 714 145 721 0 10 -37 13 -173 13 l-174
0 -694 341 c-382 188 -748 368 -814 400 l-120 58 781 0 780 1 13 -49z m791 41
c0 -4 -13 -28 -29 -53 -107 -170 -339 -199 -484 -60 -33 30 -77 97 -77 116 0
3 133 5 295 5 162 0 295 -4 295 -8z m1487 -3 c40 -15 82 -57 104 -104 16 -35
19 -68 19 -283 0 -259 -4 -288 -53 -341 -48 -52 -87 -61 -279 -61 l-178 0 0
400 0 400 179 0 c103 0 192 -5 208 -11z"/>
<path d="M2763 2480 c-12 -5 -29 -21 -39 -35 -21 -32 -117 -520 -109 -553 18
-72 116 -98 167 -44 24 24 33 57 77 285 47 238 50 261 37 292 -22 52 -80 76
-133 55z"/>
<path d="M2567 1686 c-14 -13 -29 -35 -32 -48 -35 -155 -34 -190 4 -229 46
-45 124 -38 153 14 17 32 46 183 40 212 -12 67 -114 99 -165 51z"/>
<path d="M4976 3455 c-49 -26 -55 -42 -56 -148 0 -110 7 -130 52 -153 42 -22
90 -11 122 27 24 28 26 38 26 125 0 88 -2 95 -27 124 -34 37 -78 46 -117 25z"/>
</g>
</svg>
