<svg width="50" height="50" viewBox="0 0 50 50" fill="none" xmlns="http://www.w3.org/2000/svg">
<rect width="50" height="50" fill="#85CDFD"/>
<path d="M24.9998 17.9475V34.1975M20.3957 21.1975H17.9582M21.2082 24.4475H17.9582M35.8332 30.135V17.0592C35.8332 15.7592 34.7715 14.795 33.4823 14.9033H33.4173C31.1423 15.0983 27.6865 16.2575 25.7582 17.4708L25.574 17.59C25.2598 17.785 24.7398 17.785 24.4257 17.59L24.1548 17.4275C22.2265 16.225 18.7815 15.0767 16.5065 14.8925C15.2173 14.7842 14.1665 15.7592 14.1665 17.0483V30.135C14.1665 31.175 15.0115 32.15 16.0515 32.28L16.3657 32.3233C18.7165 32.6375 22.3457 33.8292 24.4257 34.9667L24.469 34.9883C24.7615 35.1508 25.2273 35.1508 25.509 34.9883C27.589 33.84 31.229 32.6375 33.5907 32.3233L33.9482 32.28C34.9882 32.15 35.8332 31.175 35.8332 30.135Z" stroke="black" stroke-width="1.5" stroke-linecap="round" stroke-linejoin="round"/>
</svg>
