<svg width="50" height="50" viewBox="0 0 50 50" fill="none" xmlns="http://www.w3.org/2000/svg">
<rect width="50" height="50" fill="#85CDFD"/>
<path d="M21.7826 35.4975L24.3068 33.3742C24.6859 33.0492 25.3143 33.0492 25.6934 33.3742L28.2176 35.4975C28.8026 35.79 29.5176 35.4975 29.7343 34.8692L30.2109 33.4283C30.3301 33.0817 30.2109 32.5725 29.9509 32.3125L27.4918 29.8425C27.3076 29.6692 27.1668 29.3225 27.1668 29.0733V25.9858C27.1668 25.5308 27.5026 25.3142 27.9251 25.4875L33.2443 27.7842C34.0784 28.1417 34.7609 27.6975 34.7609 26.7875V25.39C34.7609 24.6642 34.2193 23.83 33.5476 23.5483L27.4918 20.9375C27.3989 20.8898 27.3202 20.8188 27.2632 20.7314C27.2062 20.644 27.1729 20.5433 27.1668 20.4392V17.1892C27.1668 16.1708 26.4193 14.9683 25.5093 14.5025C25.1843 14.34 24.8051 14.34 24.4801 14.5025C23.5701 14.9683 22.8226 16.1817 22.8226 17.2V20.45C22.8226 20.645 22.6709 20.8725 22.4976 20.9483L16.4526 23.5592C15.7809 23.83 15.2393 24.6642 15.2393 25.39V26.7875C15.2393 27.6975 15.9218 28.1417 16.7559 27.7842L22.0751 25.4875C22.4868 25.3033 22.8334 25.5308 22.8334 25.9858V29.0733C22.8334 29.3225 22.6926 29.6692 22.5193 29.8425L20.0601 32.3125C19.8001 32.5725 19.6809 33.0708 19.8001 33.4283L20.2768 34.8692C20.4718 35.4975 21.1868 35.8008 21.7826 35.4975Z" stroke="black" stroke-width="1.5" stroke-linecap="round" stroke-linejoin="round"/>
</svg>
