<svg width="50" height="50" viewBox="0 0 50 50" fill="none" xmlns="http://www.w3.org/2000/svg">
<rect width="50" height="50" fill="#85CDFD"/>
<path d="M24.9998 35.8334C30.9831 35.8334 35.8332 30.9833 35.8332 25.0001C35.8332 19.0168 30.9831 14.1667 24.9998 14.1667C19.0166 14.1667 14.1665 19.0168 14.1665 25.0001C14.1665 30.9833 19.0166 35.8334 24.9998 35.8334Z" stroke="black" stroke-width="1.5" stroke-linecap="round" stroke-linejoin="round"/>
<path d="M20.6665 15.25H21.7499C19.6374 21.5784 19.6374 28.4216 21.7499 34.75H20.6665M28.2499 15.25C30.3623 21.5784 30.3623 28.4216 28.2499 34.75" stroke="black" stroke-width="1.5" stroke-linecap="round" stroke-linejoin="round"/>
<path d="M15.25 29.3335V28.2501C21.5784 30.3626 28.4216 30.3626 34.75 28.2501V29.3335M15.25 21.7501C21.5784 19.6377 28.4216 19.6377 34.75 21.7501" stroke="black" stroke-width="1.5" stroke-linecap="round" stroke-linejoin="round"/>
</svg>
