<svg width="65" height="65" viewBox="0 0 65 65" fill="none" xmlns="http://www.w3.org/2000/svg">
<path d="M24.4565 58.7439L30.7669 53.4355C31.7148 52.623 33.2856 52.623 34.2336 53.4355L40.544 58.7439C42.0065 59.4751 43.794 58.7439 44.3356 57.173L45.5273 53.5709C45.8252 52.7043 45.5273 51.4314 44.8773 50.7813L38.7294 44.6063C38.269 44.173 37.9169 43.3064 37.9169 42.6834V34.9647C37.9169 33.8272 38.7565 33.2855 39.8127 33.7188L53.1106 39.4605C55.1961 40.3543 56.9023 39.2438 56.9023 36.9688V33.4751C56.9023 31.6605 55.5481 29.5751 53.869 28.8709L38.7294 22.3438C38.4974 22.2247 38.3004 22.0472 38.1579 21.8287C38.0154 21.6102 37.9324 21.3584 37.9169 21.098V12.973C37.9169 10.4272 36.0481 7.42093 33.7731 6.25635C32.9606 5.8501 32.0127 5.8501 31.2002 6.25635C28.9252 7.42093 27.0565 10.4543 27.0565 13.0001V21.1251C27.0565 21.6126 26.6773 22.1814 26.244 22.3709L11.1315 28.898C9.45231 29.5751 8.09814 31.6605 8.09814 33.4751V36.9688C8.09814 39.2438 9.80439 40.3543 11.8898 39.4605L25.1877 33.7188C26.2169 33.2584 27.0836 33.8272 27.0836 34.9647V42.6834C27.0836 43.3064 26.7315 44.173 26.2981 44.6063L20.1502 50.7813C19.5002 51.4314 19.2023 52.6772 19.5002 53.5709L20.6919 57.173C21.1794 58.7439 22.9669 59.5022 24.4565 58.7439Z" fill="white"/>
</svg>
