<svg width="80" height="80" viewBox="0 0 800 800" fill="none" xmlns="http://www.w3.org/2000/svg">
<path d="M86.1406 408.486C93.3438 401.116 101.152 394.347 109.47 388.231C84.7969 363.711 69.5156 329.767 69.5156 292.234C69.5156 217.488 130.122 156.881 204.881 156.881C256.144 156.881 300.739 185.391 323.709 227.424C341.478 215.295 361.012 205.631 381.855 198.836L382.855 196.042C383.598 193.98 383.392 191.684 382.303 189.788C381.2 187.889 379.317 186.556 377.163 186.172L326.131 177.006C323.067 176.455 320.658 174.058 320.106 170.983L310.941 119.952C310.556 117.799 309.236 115.902 307.325 114.811C305.428 113.708 303.145 113.491 301.069 114.247L252.281 131.769C249.359 132.834 246.078 131.963 244.066 129.578L210.57 90.0063C209.161 88.3282 207.058 87.3657 204.878 87.3657C202.673 87.3657 200.597 88.3282 199.173 90.0063L165.681 129.578C163.669 131.963 160.387 132.834 157.45 131.795L108.677 114.261C106.613 113.517 104.319 113.72 102.408 114.813C100.509 115.914 99.2031 117.799 98.8047 119.953L89.6406 170.984C89.075 174.059 86.6781 176.456 83.6156 177.008L32.5844 186.161C30.4188 186.558 28.5469 187.88 27.4437 189.777C26.3406 191.686 26.1375 193.967 26.8813 196.044L44.4172 244.831C45.4688 247.767 44.5969 251.036 42.2125 253.061L2.64063 286.542C0.960938 287.953 0 290.055 0 292.234C0 294.438 0.960938 296.514 2.64063 297.938L42.2109 331.433C44.5953 333.445 45.4672 336.727 44.4156 339.661L26.8797 388.438C26.1359 390.514 26.3406 392.795 27.4422 394.706C28.5453 396.603 30.4172 397.909 32.5828 398.308L83.6141 407.461C84.5391 407.628 85.3719 408.013 86.1406 408.486Z" fill="white"/>
<path d="M755.661 454.211C732.588 431.111 701.886 415.55 667.777 411.23C664.802 357.839 642.152 309.551 606.683 274.122C568.636 236.037 515.861 212.425 457.767 212.439C403.352 212.426 353.577 233.153 316.25 267.072C284.139 296.208 261.13 335.253 251.824 379.323C242.799 377.825 233.556 376.978 224.122 376.978C177.834 376.966 135.764 395.783 105.447 426.137C75.1064 456.441 56.2876 498.525 56.2876 544.8C56.2876 591.087 75.1064 633.172 105.447 663.475C135.764 693.816 177.834 712.634 224.122 712.634H648.625C690.375 712.634 728.331 695.662 755.661 668.295C783.028 640.966 800.014 602.997 800 561.259C800.013 519.522 783.028 481.539 755.661 454.211ZM727.741 640.362C707.424 660.642 679.581 673.126 648.625 673.141H224.122C188.627 673.128 156.658 658.809 133.378 635.544C110.113 612.264 95.7938 580.306 95.7813 544.8C95.7938 509.305 110.113 477.334 133.378 454.056C156.658 430.803 188.627 416.472 224.122 416.458C237.377 416.458 250.092 418.458 262.078 422.176L285.1 429.291L287.561 405.319C291.972 362.247 312.38 323.933 342.784 296.309C373.228 268.711 413.441 251.931 457.767 251.931C505.067 251.931 547.728 271.044 578.763 302.053C609.772 333.075 628.872 375.734 628.884 423.048C628.884 424.714 628.82 426.664 628.73 428.945L627.974 450.186L648.945 449.376C679.774 449.48 707.5 461.939 727.742 482.142C748.02 502.461 760.494 530.301 760.52 561.259C760.492 592.217 748.02 620.059 727.741 640.362Z" fill="white"/>
</svg>
